<svg width="55" height="47" viewBox="0 0 55 47" fill="none" xmlns="http://www.w3.org/2000/svg">
<path d="M25 15L29.5 13L32 15L37.5 11L36.5 10L40.5 9.5L40 12.5L39 12L33.5 16L32 17L29.5 15L25.5 16.5L25 15Z" fill="#92FD79"/>
<path fill-rule="evenodd" clip-rule="evenodd" d="M23.5 5C22.76 10.3243 22.6518 13.3688 23.5 19L43.5 19.5C43.7061 14.5671 43.7322 11.7391 43.5 6.5L23.5 5ZM29.5 13L25 15L25.5 16.5L29.5 15L32 17L33.5 16L39 12L40 12.5L40.5 9.5L36.5 10L37.5 11L32 15L29.5 13Z" fill="#A4F0FF"/>
<path fill-rule="evenodd" clip-rule="evenodd" d="M19.5 1V23L32 23.4464L35.5 23.5714L47.5 24V2.5L19.5 1ZM23.5 19C22.6518 13.3688 22.76 10.3243 23.5 5L43.5 6.5C43.7322 11.7391 43.7061 14.5671 43.5 19.5L23.5 19Z" fill="#FFF2E0"/>
<path d="M47.5 2.5V24L51 22V19V6.5V3.5L47.5 2.5Z" fill="#FFF2E0"/>
<path d="M51 19L53.5 17C54.8532 13.7548 54.8045 11.6581 53.5 7.5L51 6.5V19Z" fill="#AAAAAA"/>
<path d="M32 23.4464L31.6579 24.3199L31 26L36.5 26.5L36 25.0357L35.5 23.5714L32 23.4464Z" fill="#FFF2E0"/>
<path d="M36.5 26.5L31 26L31.6579 24.3199L31 25C31 25 26.5 25.0357 25 26C23.5 26.9643 25.5 29.5 31 29.5C36.5 29.5 35.6234 29.8156 39.5 29C43.3766 28.1844 38.3438 29.5656 40 27C41.6562 24.4344 36 25.0357 36 25.0357L36.5 26.5Z" fill="#FFF2E0"/>
<path d="M47.5 24V2.5M47.5 24L51 22V19M47.5 24L35.5 23.5714M47.5 2.5L19.5 1V23L32 23.4464M47.5 2.5L51 3.5V6.5M51 19L53.5 17C54.8532 13.7548 54.8045 11.6581 53.5 7.5L51 6.5M51 19V6.5M32 23.4464L35.5 23.5714M32 23.4464L31.6579 24.3199M35.5 23.5714L36 25.0357M36 25.0357L36.5 26.5L31 26L31.6579 24.3199M36 25.0357C36 25.0357 41.6562 24.4344 40 27C38.3438 29.5656 43.3766 28.1844 39.5 29C35.6234 29.8156 36.5 29.5 31 29.5C25.5 29.5 23.5 26.9643 25 26C26.5 25.0357 31 25 31 25L31.6579 24.3199M23.5 5C22.76 10.3243 22.6518 13.3688 23.5 19L43.5 19.5C43.7061 14.5671 43.7322 11.7391 43.5 6.5L23.5 5ZM25 15L29.5 13L32 15L37.5 11L36.5 10L40.5 9.5L40 12.5L39 12L33.5 16L32 17L29.5 15L25.5 16.5L25 15Z" stroke="black"/>
<path d="M49.0436 37.5431L14.1815 34.8253L14.261 27.8401L21.2335 28.3837L27.4846 28.871L32.2931 29.2459L37.778 29.6735L43.4505 30.1157L49.1231 30.5579L49.0436 37.5431Z" fill="#FFC273"/>
<path d="M21.2335 28.3837L14.261 27.8401L14.1815 34.8253L49.0436 37.5431L49.1231 30.5579L43.4505 30.1157M21.2335 28.3837L21.5733 31.514M21.2335 28.3837L27.4846 28.871M27.4846 28.871L27.6732 31.7387M27.4846 28.871L32.2931 29.2459M32.2931 29.2459L32.6822 31.5649M32.2931 29.2459L37.778 29.6735M37.778 29.6735L38.459 32.6736M37.778 29.6735L43.4505 30.1157M43.4505 30.1157L43.468 32.4998" stroke="black"/>
<path d="M19.046 33.2883C19.046 33.2883 19.0619 31.2876 20.0442 30.5145C21.0264 29.7413 22.582 30.505 22.582 30.505L4.61559 6.87247C4.61559 6.87247 4.09706 6.61792 2.39988 7.29116C0.702702 7.9644 1.33096 10.7835 1.33096 10.7835L19.046 33.2883Z" fill="#EC1F1F"/>
<path d="M21.6387 34.5611L24.2313 35.8338L23.4067 33.1694C23.4067 33.1694 22.943 34.1971 22.2988 33.3787C21.6546 32.5604 21.6387 34.5611 21.6387 34.5611Z" fill="#EC1F1F"/>
<path d="M20.0442 30.5145C19.0619 31.2876 19.046 33.2883 19.046 33.2883L21.6387 34.5611C21.6387 34.5611 21.6546 32.5604 22.2988 33.3787C22.943 34.1971 23.4067 33.1694 23.4067 33.1694L22.582 30.505C22.582 30.505 21.0264 29.7413 20.0442 30.5145Z" fill="#FFE4C1"/>
<path d="M19.046 33.2883C19.046 33.2883 19.0619 31.2876 20.0442 30.5145C21.0264 29.7413 22.582 30.505 22.582 30.505M19.046 33.2883L1.33096 10.7835C1.33096 10.7835 0.702702 7.9644 2.39988 7.29116C4.09706 6.61792 4.61559 6.87247 4.61559 6.87247L22.582 30.505M19.046 33.2883L21.6387 34.5611M22.582 30.505L23.4067 33.1694M21.6387 34.5611L24.2313 35.8338L23.4067 33.1694M21.6387 34.5611C21.6387 34.5611 21.6546 32.5604 22.2988 33.3787C22.943 34.1971 23.4067 33.1694 23.4067 33.1694" stroke="black"/>
</svg>
